<svg xmlns="http://www.w3.org/2000/svg" viewBox="0 0 261.63 140.26"><defs><style>.cls-1{fill:#2d3b5c;}</style></defs><g id="Capa_2" data-name="Capa 2"><g id="Capa_1-2" data-name="Capa 1"><path class="cls-1" d="M67.86,82.74c-.67,0-1,0-1.26,0-7,0-14,.06-21-.07a7.86,7.86,0,0,1-7.2-4.22c-1.07-2-.88-4.05-.76-6.11a6.62,6.62,0,0,1,4.21-6.12c4.19-1.72,8.6-1.09,12.94-.94a2.6,2.6,0,0,1,2.46,2.68C57,69.4,56,70.14,54.1,70.15s-4.08-.08-6.11,0a18.42,18.42,0,0,0-4.39.66c-3,.92-4.07,3.51-3.46,7.63a4.37,4.37,0,0,0,.54.08c5.86,0,11.73.07,17.59-.08,3.16-.08,6-1.08,7.79-4s2-6.35,1.37-9.73c-1-5.42-4.2-7.91-8.66-8.12-6.17-.3-12.42-.76-18.57.45-5.35,1.06-9.58,3.81-11.64,9.07a21.42,21.42,0,0,0-.81,12.68A15.13,15.13,0,0,0,41.82,91.19c6.72.5,13.51.18,20.27.1a5.44,5.44,0,0,0,5.32-4.2,38.25,38.25,0,0,0,.45-4.35M218.51,38.2h-1.67c-6.36,0-12.72.08-19.08,0-4.92-.08-8.67-1.73-9.4-7.6-.48-3.81.88-7.9,5.22-9.26,3.95-1.24,8.07-.57,12.12-.61a1.14,1.14,0,0,1,.82.28c.56.68,1.44,1.42,1.45,2.16a3.56,3.56,0,0,1-1.36,2.2c-.4.35-1.21.31-1.85.34-3,.12-5.94.06-8.89.35A5.08,5.08,0,0,0,191,30.58a28.25,28.25,0,0,0,0,3.45c6.24,0,12.35.15,18.44-.05,3.83-.12,7-1.82,8.48-5.63a14.57,14.57,0,0,0,.56-8.06c-.91-5.12-4-7.95-8.56-8.19a125.83,125.83,0,0,0-17.69.28c-4.94.44-9.31,2.72-11.76,7.31a19.7,19.7,0,0,0-.5,18.11c2.74,6,7.92,8.66,14.23,9,5.55.29,11.13.11,16.69.1,5.92,0,8.08-2.3,7.81-8.19a2.75,2.75,0,0,0-.12-.5M99.67,91.48h10.6v-35h-1.71c-6.06,0-12.13-.11-18.19,0a39.8,39.8,0,0,0-8.5,1.07c-5.53,1.4-9.28,5-10.39,10.62a46.56,46.56,0,0,0-.5,10,13.29,13.29,0,0,0,9,12.09,28.75,28.75,0,0,0,11.56,1.08c4.86-.35,6.94-4,5.84-8.67H95.8c-2.59,0-5.17,0-7.75-.07-3.55-.16-6.07-2.35-6.42-5.8a19.47,19.47,0,0,1,.3-5.75,6.36,6.36,0,0,1,6.13-5.47c3.76-.24,7.54-.15,11.31-.2.07,0,.14.13.3.28Zm32.66-70.83V12c-1.83,0-3.56,0-5.29,0-5.2.09-10.42,0-15.6.37a15.83,15.83,0,0,0-9.6,4.18c-4.08,3.73-5.26,8.52-5.19,13.82.11,8.53,5.81,15.34,14.27,16.16a101,101,0,0,0,16.5.23c4.79-.31,6.46-3.37,5.58-8.53h-1.62c-5.26,0-10.53.12-15.8,0-3.2-.09-6.3-.94-7.79-4.18a9.47,9.47,0,0,1,1-10.21c1.87-2.46,4.68-3,7.55-3.1,4.77-.09,9.54,0,14.31,0h1.66M36.58,38.2c-3.72,0-7.39,0-11,0-2.73,0-5.46,0-8.16-.29-3.06-.27-5.55-1.7-6.52-4.75-1.14-3.59-.84-7.12,1.88-10,1.83-1.9,4.36-2.47,6.93-2.52,3.88-.07,7.75,0,11.63,0h4.43V12C29.81,12,24,12,18.2,12a19.37,19.37,0,0,0-2.95.27C6.24,13.62,1.61,18.17.23,27c-1.66,10.7,5.68,19.57,16.46,19.82,4.07.09,8.14.06,12.22,0,5.95,0,8.06-2.25,7.8-8.19,0-.1-.05-.19-.13-.5m113.8,27.45V91.27h11V65.64h13.93V56H135.75v9.69ZM208,55.92c0,.57-.07,1-.07,1.53,0,5.91-.21,11.83,0,17.73.19,4.83-2.8,7.41-7.54,7.48-6.36.09-12.72,0-19.07,0h-1.74v8.68h1.82c6.75,0,13.51,0,20.26,0a38.92,38.92,0,0,0,6.19-.56A12.81,12.81,0,0,0,218.65,78q0-10.27,0-20.56c0-.48,0-1-.07-1.48ZM68.31,46.77H78.92V12.1H68.25V24.2c-3.29,0-6.47-.16-9.63,0-4.74.31-7.95,2.64-6.75,8.85H68.31ZM164.58,24.2c-3.37,0-6.5-.15-9.62,0-5,.3-7.88,2.89-6.76,8.87h16.42V46.8H175.3V12.08H164.58Zm-50,32.32c0,7.17-.14,14.17,0,21.16.22,8.68,5.67,12.66,12.78,13.55a68.07,68.07,0,0,0,11,.09c4.57-.16,6.77-3.88,5.69-8.61-3.79,0-7.61.08-11.42,0-4.14-.12-7.45-2.21-7.31-7.41.16-5.75,0-11.51,0-17.27,0-.48-.05-1-.08-1.49Zm136.34-9.73h10.68c0-7.6.21-15.11-.08-22.59-.18-4.39-2.53-7.78-6.54-9.94A22.51,22.51,0,0,0,246.27,12c-3.67-.37-7,.44-9.56,3.3a6.84,6.84,0,0,0-2,5.41,1.82,1.82,0,0,0,.41.16c2.88,0,5.76,0,8.64.06,4.72.1,7.14,2.6,7.15,7.34,0,5.61,0,11.22,0,16.83Zm-28.74,0h10.74V12.05H222.14ZM.12,91.25H10.66V56.5H.12ZM146.27,12.08H135.78V46.84h10.49Zm-52.74,0H83V46.85H93.53Zm-54,34.72H50V12H39.49ZM206.13,70.08c-1.19,0-2.32,0-3.45,0a69.29,69.29,0,0,1-7.23-.5C191.69,69,190,66.79,190,63V55.91H178.87c.22,3.83.34,7.58.67,11.31.41,4.61,3.06,7.77,7.09,9.71a20.74,20.74,0,0,0,11.89,1.73c4-.54,7.87-4.07,7.61-8.58M218,0c-5.95,0-11.75-.11-17.55,0-5,.13-7.36,3.46-6.36,8.52H218ZM25.62,56.57c-7.69-.75-13.93,3.52-12.88,8.66H25.62Z"/><path class="cls-1" d="M67.86,82.75a36.14,36.14,0,0,1-.45,4.34,5.44,5.44,0,0,1-5.32,4.2c-6.76.08-13.55.41-20.27-.11A15.11,15.11,0,0,1,27.75,78.77a21.42,21.42,0,0,1,.81-12.68c2.06-5.26,6.29-8,11.64-9.07,6.15-1.21,12.4-.75,18.57-.45,4.46.21,7.66,2.7,8.66,8.12.62,3.38.52,6.65-1.37,9.73s-4.63,4-7.79,4c-5.86.15-11.73.07-17.59.08a4.37,4.37,0,0,1-.54-.08c-.61-4.12.5-6.71,3.46-7.62A17.93,17.93,0,0,1,48,70.17c2-.1,4.07,0,6.11,0s2.93-.76,3.13-2.24a2.6,2.6,0,0,0-2.46-2.68c-4.34-.15-8.75-.78-12.94.94a6.62,6.62,0,0,0-4.21,6.12c-.12,2.06-.31,4.15.76,6.11a7.86,7.86,0,0,0,7.19,4.22c7,.13,14,.06,21,.07.29,0,.59,0,1.26.06"/><path class="cls-1" d="M218.51,38.2a2.75,2.75,0,0,1,.12.5c.27,5.89-1.89,8.18-7.81,8.19-5.56,0-11.14.19-16.69-.1-6.31-.33-11.49-2.95-14.23-9a19.7,19.7,0,0,1,.5-18.11c2.45-4.59,6.82-6.87,11.76-7.31a125.83,125.83,0,0,1,17.69-.28c4.57.24,7.65,3.07,8.56,8.19a14.57,14.57,0,0,1-.56,8.06c-1.52,3.81-4.65,5.51-8.48,5.63-6.09.2-12.2.05-18.44.05a28.25,28.25,0,0,1,0-3.45A5.08,5.08,0,0,1,195.87,26c2.95-.28,5.93-.23,8.9-.35.63,0,1.44,0,1.84-.34a3.56,3.56,0,0,0,1.36-2.2c0-.74-.89-1.48-1.45-2.16a1.14,1.14,0,0,0-.82-.28c-4,0-8.17-.63-12.12.61-4.34,1.36-5.7,5.45-5.22,9.26.73,5.87,4.48,7.52,9.4,7.6,6.36.1,12.72,0,19.08,0Z"/><path class="cls-1" d="M99.67,91.48V65.71c-.16-.15-.23-.28-.3-.28-3.77,0-7.55,0-11.31.19a6.37,6.37,0,0,0-6.13,5.48,19.47,19.47,0,0,0-.3,5.75c.35,3.45,2.87,5.64,6.42,5.8,2.58.12,5.16.06,7.75.07.53,0,1.07,0,1.58,0,1.1,4.67-1,8.32-5.84,8.67A28.74,28.74,0,0,1,80,90.31a13.29,13.29,0,0,1-9-12.09,46.56,46.56,0,0,1,.5-10c1.11-5.65,4.86-9.22,10.39-10.62a39.17,39.17,0,0,1,8.5-1.07c6.06-.16,12.13,0,18.19,0h1.71v35Z"/><path class="cls-1" d="M132.33,20.65h-1.66c-4.77,0-9.54-.07-14.31,0-2.87.06-5.68.64-7.55,3.1a9.47,9.47,0,0,0-1,10.21c1.49,3.24,4.59,4.09,7.79,4.18,5.27.16,10.54,0,15.8,0H133c.88,5.16-.79,8.22-5.58,8.53a101,101,0,0,1-16.5-.23c-8.46-.82-14.16-7.63-14.27-16.16-.07-5.3,1.11-10.09,5.19-13.82a15.89,15.89,0,0,1,9.6-4.18c5.18-.38,10.4-.28,15.6-.37,1.73,0,3.46,0,5.29,0Z"/><path class="cls-1" d="M36.58,38.2c.08.31.12.4.13.5.27,5.94-1.85,8.17-7.8,8.19-4.08,0-8.15,0-12.22,0C5.91,46.59-1.43,37.71.24,27c1.37-8.85,6-13.4,15-14.76A19.37,19.37,0,0,1,18.2,12c5.8,0,11.61,0,17.52,0v8.68H31.29c-3.88,0-7.75-.06-11.63,0-2.57.05-5.1.62-6.93,2.52-2.72,2.85-3,6.38-1.88,10,1,3.05,3.46,4.48,6.52,4.75,2.7.24,5.43.26,8.16.29,3.66.05,7.33,0,11,0"/><polygon class="cls-1" points="150.38 65.65 135.75 65.65 135.75 55.96 175.29 55.96 175.29 65.64 161.36 65.64 161.36 91.27 150.38 91.27 150.38 65.65"/><path class="cls-1" d="M208,55.92h10.56c0,.52.07,1,.07,1.48q0,10.27,0,20.56a12.79,12.79,0,0,1-10.76,12.81,38.92,38.92,0,0,1-6.19.56c-6.75.07-13.51,0-20.26,0h-1.82V82.68h1.74c6.35,0,12.71.07,19.07,0,4.75-.06,7.73-2.64,7.54-7.47-.23-5.9,0-11.82,0-17.73,0-.48,0-1,.07-1.53"/><path class="cls-1" d="M68.31,46.77V33.09H51.87c-1.2-6.21,2-8.54,6.75-8.85,3.16-.2,6.34,0,9.63,0V12.1H78.92V46.77Z"/><path class="cls-1" d="M164.58,24.2V12.08H175.3V46.8H164.62V33.12H148.2c-1.12-6,1.8-8.58,6.76-8.88,3.12-.19,6.25,0,9.62,0"/><path class="cls-1" d="M114.54,56.52h10.67c0,.53.08,1,.08,1.49,0,5.76.16,11.52,0,17.27-.14,5.2,3.17,7.29,7.31,7.41,3.81.1,7.63,0,11.42,0,1.08,4.73-1.12,8.45-5.69,8.61a68.07,68.07,0,0,1-11-.09c-7.11-.89-12.56-4.87-12.78-13.55-.18-7,0-14,0-21.16"/><path class="cls-1" d="M250.88,46.79V45.11c0-5.61,0-11.22,0-16.84,0-4.73-2.43-7.23-7.15-7.33-2.88-.07-5.76,0-8.64-.06a1.82,1.82,0,0,1-.41-.16,6.84,6.84,0,0,1,2-5.41c2.57-2.86,5.89-3.67,9.56-3.3a22.51,22.51,0,0,1,8.67,2.25c4,2.16,6.36,5.55,6.54,9.94.29,7.48.08,15,.08,22.59Z"/><rect class="cls-1" x="222.14" y="12.05" width="10.74" height="34.72"/><rect class="cls-1" x="0.12" y="56.5" width="10.54" height="34.75"/><rect class="cls-1" x="135.77" y="12.08" width="10.5" height="34.76"/><rect class="cls-1" x="83.04" y="12.08" width="10.49" height="34.77"/><rect class="cls-1" x="39.49" y="12.03" width="10.5" height="34.77"/><path class="cls-1" d="M206.13,70.08c.26,4.51-3.65,8-7.61,8.58a20.74,20.74,0,0,1-11.89-1.73c-4-1.94-6.68-5.1-7.09-9.71-.33-3.73-.45-7.48-.67-11.31H190V63c0,3.77,1.67,5.95,5.43,6.55a69.29,69.29,0,0,0,7.23.5c1.13.05,2.26,0,3.45,0"/><path class="cls-1" d="M218,0V8.6H194.09c-1-5.06,1.31-8.39,6.36-8.52,5.8-.15,11.6,0,17.55,0"/><path class="cls-1" d="M25.62,56.57v8.66H12.74c-1.05-5.14,5.19-9.41,12.88-8.66"/><path class="cls-1" d="M99,108a8.61,8.61,0,0,1,3.8.85v1.52a6.77,6.77,0,0,0-3.58-.93c-2.66,0-5.41,1.49-5.41,5.11,0,3.81,2.78,5.1,5.44,5.1a5.55,5.55,0,0,0,2.34-.47v-5h1.52v6.1a9.73,9.73,0,0,1-4,.85c-3.48,0-6.88-1.78-6.88-6.55,0-4.36,3.36-6.55,6.73-6.55"/><path class="cls-1" d="M109.1,120.92V108.25h5c2.28,0,4.74.94,4.74,3.84,0,2.33-1.59,3.38-3.38,3.71l4.29,5.12h-1.9l-4.14-5h-3v5Zm1.52-6.44h3.51c1.52,0,3.13-.51,3.13-2.39s-1.61-2.39-3.13-2.39h-3.51Z"/><path class="cls-1" d="M135.35,108.25v8c0,3.62-2.48,4.85-5.28,4.85s-5.31-1.23-5.31-4.85v-8h1.52v8c0,2.57,1.6,3.48,3.79,3.48s3.76-.91,3.76-3.48v-8Z"/><path class="cls-1" d="M146.1,108.25c2.93,0,5.37.93,5.37,4.09s-2.44,4.09-5.37,4.09h-2.81v4.49h-1.52V108.25Zm.07,1.45h-2.88V115h2.88c2.06,0,3.76-.5,3.76-2.64s-1.68-2.64-3.76-2.64"/><path class="cls-1" d="M162.74,108a6.55,6.55,0,1,1-6.62,6.55,6.31,6.31,0,0,1,6.62-6.55m0,1.44a5.11,5.11,0,1,0,5.09,5.11,4.84,4.84,0,0,0-5.09-5.11"/><rect class="cls-1" x="50.27" y="127.37" width="1.52" height="12.67"/><polygon class="cls-1" points="58.36 140.04 58.36 127.38 59.77 127.38 67.39 137.49 67.39 136.4 67.39 127.38 68.91 127.38 68.91 140.04 67.5 140.04 59.88 129.91 59.88 130.99 59.88 140.04 58.36 140.04"/><polygon class="cls-1" points="88.54 127.38 88.54 140.04 87.02 140.04 87.02 130.25 82.48 137.06 81.54 137.06 77 130.25 77 140.04 75.48 140.04 75.48 127.38 76.78 127.38 82.01 135.19 87.24 127.38 88.54 127.38"/><path class="cls-1" d="M100.88,127.16a6.55,6.55,0,1,1-6.62,6.55,6.31,6.31,0,0,1,6.62-6.55m0,1.44a5.11,5.11,0,1,0,5.09,5.11,4.84,4.84,0,0,0-5.09-5.11"/><path class="cls-1" d="M118.41,127.37c2.59,0,4.31,1.07,4.31,3.21a2.79,2.79,0,0,1-2,2.8,3.19,3.19,0,0,1,2.54,3.19c0,2.87-2.83,3.47-4.67,3.47h-5.34V127.37Zm-.12,1.45h-3.55v4h4c1.32,0,2.48-.53,2.48-2s-1.1-2-2.89-2m.38,5.39h-3.93v4.38h3.51c1.59,0,3.44-.11,3.44-2.19s-1.81-2.19-3-2.19"/><rect class="cls-1" x="128.96" y="127.37" width="1.52" height="12.67"/><polygon class="cls-1" points="138.57 127.38 138.57 138.59 145.59 138.59 145.59 140.04 137.05 140.04 137.05 127.38 138.57 127.38"/><rect class="cls-1" x="150.76" y="127.37" width="1.52" height="12.67"/><path class="cls-1" d="M157.32,140l5.51-12.67h1.69L170,140h-1.63l-1.3-3.06h-6.83L159,140Zm3.54-4.47h5.63l-2.63-6.15c-.07-.16-.12-.31-.19-.49-.08.18-.13.33-.2.49Z"/><path class="cls-1" d="M175.06,140V127.37h5c2.28,0,4.74.95,4.74,3.84,0,2.33-1.59,3.38-3.38,3.71l4.29,5.12h-1.9l-4.15-5h-3v5Zm1.52-6.44h3.51c1.52,0,3.13-.51,3.13-2.39s-1.61-2.39-3.13-2.39h-3.51Z"/><rect class="cls-1" x="190.88" y="127.37" width="1.52" height="12.67"/><path class="cls-1" d="M204.74,127.16a6.55,6.55,0,1,1-6.62,6.55,6.31,6.31,0,0,1,6.62-6.55m0,1.44a5.11,5.11,0,1,0,5.08,5.11,4.84,4.84,0,0,0-5.08-5.11"/></g></g></svg>