<svg xmlns="http://www.w3.org/2000/svg" viewBox="0 0 205.56 129.06"><defs><style>.cls-1{stroke:#000;stroke-miterlimit:10;stroke-width:2px;}</style></defs><g id="Capa_2" data-name="Capa 2"><g id="Capa_1-2" data-name="Capa 1"><path d="M6.67.61V43.29H0V.61Zm2.75,27h4.83a8.46,8.46,0,0,0,4.06-1,10.89,10.89,0,0,0,3.37-2.85,14,14,0,0,0,2.26-4.21,15.91,15.91,0,0,0,.82-5.17,15.87,15.87,0,0,0-.82-5.17,14.2,14.2,0,0,0-2.26-4.22,10.85,10.85,0,0,0-3.37-2.84,8.46,8.46,0,0,0-4.06-1V.18a22,22,0,0,1,7,1.1,19,19,0,0,1,5.74,3,15.25,15.25,0,0,1,3.89,4.47,10.86,10.86,0,0,1,1.43,5.41,11.5,11.5,0,0,1-1,4.67,13.13,13.13,0,0,1-2.79,4A17.94,17.94,0,0,1,24.24,26a20.19,20.19,0,0,1-5.41,1.92A12.32,12.32,0,0,1,24,29.17a8.59,8.59,0,0,1,3.58,2.93l7.09,11.19H27.76c-.29-.45-.67-1.07-1.16-1.87l-1.68-2.69c-.64-1-1.3-2-2-3s-1.39-2-2.08-2.94a29.74,29.74,0,0,0-2-2.41A5.77,5.77,0,0,0,17,28.92a5.31,5.31,0,0,0-1.68-.4c-.68-.06-1.36-.09-2.05-.09H9.42Z"/><path d="M61.14,0a9.91,9.91,0,0,0-5.65,1.8,17.47,17.47,0,0,0-4.68,4.84,25.55,25.55,0,0,0-3.18,7,30.38,30.38,0,0,0,0,16.63,25.69,25.69,0,0,0,3.18,7,17.43,17.43,0,0,0,4.68,4.83,9.91,9.91,0,0,0,5.65,1.8,19.94,19.94,0,0,1-8.31-1.77A21.7,21.7,0,0,1,46,37.36a22.62,22.62,0,0,1-4.55-7,21.77,21.77,0,0,1,0-16.82,22.62,22.62,0,0,1,4.55-7,22,22,0,0,1,6.79-4.77A19.94,19.94,0,0,1,61.14,0Zm3.73,0a20,20,0,0,1,8.32,1.77,22,22,0,0,1,11.4,11.77,21.89,21.89,0,0,1,0,16.82,22.52,22.52,0,0,1-4.58,7,22.06,22.06,0,0,1-6.82,4.77,20,20,0,0,1-8.32,1.77,9.92,9.92,0,0,0,5.66-1.8,17.57,17.57,0,0,0,4.68-4.83,25.69,25.69,0,0,0,3.18-7,30.38,30.38,0,0,0,0-16.63,25.55,25.55,0,0,0-3.18-7A17.61,17.61,0,0,0,70.53,1.8,9.92,9.92,0,0,0,64.87,0Z"/><path d="M91.17,22a22.47,22.47,0,0,1,1.59-8.47A22.24,22.24,0,0,1,97.1,6.57a20.37,20.37,0,0,1,6.45-4.67A18.61,18.61,0,0,1,111.47.18V1a8.23,8.23,0,0,0-4.9,1.68,15.22,15.22,0,0,0-4.06,4.56,25.9,25.9,0,0,0-2.78,6.66,29.91,29.91,0,0,0-1,8,29.91,29.91,0,0,0,1,8,26.12,26.12,0,0,0,2.78,6.67,15.3,15.3,0,0,0,4.06,4.55,8.23,8.23,0,0,0,4.9,1.68v.86A18.61,18.61,0,0,1,103.55,42a20.4,20.4,0,0,1-6.45-4.68,22.16,22.16,0,0,1-4.34-6.94A22.5,22.5,0,0,1,91.17,22ZM120.88,1.77a21.18,21.18,0,0,1,6.67,5.32l-.86.31a18.49,18.49,0,0,0-2.63-2.6,20.4,20.4,0,0,0-3.18-2.11Zm0,39.44a17.09,17.09,0,0,0,3.18-2.05,18.42,18.42,0,0,0,2.63-2.59l.86.3a21.27,21.27,0,0,1-3.09,3.06,16.82,16.82,0,0,1-3.58,2.2Z"/><path d="M134.88,43.29V.61h6.67V43.29ZM147.72,24h9.11v.79h-9.11ZM163,.61h6.66V43.29H163Z"/><path d="M186,.61V43.29h-6.48V.61Zm6.36,23.48h5.44V25h-5.44ZM203.79,1.28v.8H192.48v-.8ZM192.48,42.07h13.08v.85H192.48Z"/><path d="M4.94,52.13v29.2H.38V52.13ZM6.82,70.58h3.31a5.83,5.83,0,0,0,2.78-.71,7.62,7.62,0,0,0,2.3-2A9.69,9.69,0,0,0,16.76,65a11.44,11.44,0,0,0,0-7.07,9.87,9.87,0,0,0-1.55-2.89,7.45,7.45,0,0,0-2.3-1.94,5.83,5.83,0,0,0-2.78-.71v-.59a15,15,0,0,1,4.76.75,13.29,13.29,0,0,1,3.94,2.07,10.38,10.38,0,0,1,2.65,3.06,7.32,7.32,0,0,1,1,3.7,7.82,7.82,0,0,1-.67,3.2,8.86,8.86,0,0,1-1.9,2.76A12.2,12.2,0,0,1,17,69.51a13.77,13.77,0,0,1-3.7,1.32,8.68,8.68,0,0,1,3.54.83,6,6,0,0,1,2.44,2l4.86,7.66H19.37l-.8-1.28c-.33-.54-.71-1.16-1.15-1.84s-.88-1.38-1.36-2.09-.94-1.38-1.42-2a19,19,0,0,0-1.38-1.65,3.84,3.84,0,0,0-1.25-1,3.54,3.54,0,0,0-1.15-.27,13,13,0,0,0-1.4-.07H6.82Z"/><path d="M33.71,52.13v29.2H29.28V52.13ZM38.06,68.2h3.73v.58H38.06Zm7.83-15.61v.55H38.15v-.55Zm-7.74,27.9h9v.59h-9Z"/><path d="M58.05,65.44l.51.2-3,7.49h8.78v.59h-9v-.17l-3.1,7.78H51.7Zm5.61-13.31,14.18,29.2H72.78L61.28,58.07Z"/><path d="M82.48,52.09H87v29.2H82.48ZM94.11,80.74h6.69v.55H94.11Z"/><path d="M97.2,51.84h8.91v.59H97.2Zm11.59,0h4.55V81.33h-4.55Zm7.23,0h8.91v.59H116Z"/><path d="M138.19,51.72A6.78,6.78,0,0,0,134.32,53a11.74,11.74,0,0,0-3.2,3.3A17.4,17.4,0,0,0,128.94,61a20.89,20.89,0,0,0,0,11.38,17.4,17.4,0,0,0,2.18,4.79,11.74,11.74,0,0,0,3.2,3.3,6.79,6.79,0,0,0,3.87,1.24,13.59,13.59,0,0,1-5.69-1.22,14.74,14.74,0,0,1-4.64-3.26,15.32,15.32,0,0,1-3.12-4.79,14.95,14.95,0,0,1,0-11.5,15.43,15.43,0,0,1,3.12-4.79,14.9,14.9,0,0,1,4.64-3.26A13.58,13.58,0,0,1,138.19,51.72Zm2.55,0a13.65,13.65,0,0,1,5.69,1.21,15,15,0,0,1,7.79,8,15,15,0,0,1,0,11.5,15,15,0,0,1-7.79,8,13.66,13.66,0,0,1-5.69,1.22,6.78,6.78,0,0,0,3.86-1.24,11.91,11.91,0,0,0,3.21-3.3A17.68,17.68,0,0,0,150,72.42,20.89,20.89,0,0,0,150,61a17.68,17.68,0,0,0-2.17-4.79A11.91,11.91,0,0,0,144.6,53,6.77,6.77,0,0,0,140.74,51.72Z"/><path d="M165,52.13v29.2h-4.56V52.13Zm1.88,18.45h3.31a5.83,5.83,0,0,0,2.78-.71,7.62,7.62,0,0,0,2.3-2A9.69,9.69,0,0,0,176.77,65a11.44,11.44,0,0,0,0-7.07,9.87,9.87,0,0,0-1.55-2.89,7.45,7.45,0,0,0-2.3-1.94,5.83,5.83,0,0,0-2.78-.71v-.59a15.08,15.08,0,0,1,4.77.75,13.35,13.35,0,0,1,3.93,2.07,10.38,10.38,0,0,1,2.65,3.06,7.33,7.33,0,0,1,1,3.7,8,8,0,0,1-.67,3.2,8.89,8.89,0,0,1-1.91,2.76A12.14,12.14,0,0,1,177,69.51a14,14,0,0,1-3.71,1.32,8.68,8.68,0,0,1,3.54.83,6,6,0,0,1,2.45,2l4.85,7.66h-4.73c-.19-.31-.46-.73-.79-1.28l-1.15-1.84c-.44-.68-.89-1.38-1.36-2.09s-1-1.38-1.43-2a19,19,0,0,0-1.38-1.65,3.84,3.84,0,0,0-1.25-1,3.54,3.54,0,0,0-1.15-.27,13,13,0,0,0-1.4-.07h-2.64Z"/><path d="M191.59,56.36a4.27,4.27,0,0,0,1,2.8,13.7,13.7,0,0,0,2.59,2.39c1,.75,2.17,1.51,3.37,2.27a30.45,30.45,0,0,1,3.36,2.49,13.4,13.4,0,0,1,2.6,3,7.31,7.31,0,0,1,.21,7.07,9.17,9.17,0,0,1-2.22,2.72,11,11,0,0,1-3.24,1.86,11.13,11.13,0,0,1-3.93.69H195V81a6.54,6.54,0,0,0,2.22-.35A4.68,4.68,0,0,0,199,79.63,4.81,4.81,0,0,0,200.54,76a5.44,5.44,0,0,0-1-3.2A14.69,14.69,0,0,0,197,70.05c-1-.84-2.12-1.67-3.31-2.48a34.47,34.47,0,0,1-3.3-2.57,14.77,14.77,0,0,1-2.55-2.93,6.44,6.44,0,0,1-1-3.58,5.65,5.65,0,0,1,.65-2.68,6.44,6.44,0,0,1,1.82-2.09,8.89,8.89,0,0,1,2.8-1.35,12.52,12.52,0,0,1,3.64-.49v.59a4.1,4.1,0,0,0-2.93,1.11A3.68,3.68,0,0,0,191.59,56.36Zm-4.22,22a13.63,13.63,0,0,0,3.39,1.88v.59a13,13,0,0,1-4-2.18Zm14.89-23.67a11.4,11.4,0,0,0-2.93-1.55v-.59a12.15,12.15,0,0,1,1.76.76,20.09,20.09,0,0,1,1.75,1Z"/><line class="cls-1" x1="0.4" y1="103.23" x2="38.11" y2="103.23"/><line class="cls-1" x1="166.84" y1="102.73" x2="204.56" y2="102.73"/><path d="M51.72,97.89A5.15,5.15,0,0,0,48.36,97c-.53,0-1.08,0-1.67.06-.38,0-.77.05-1.16.05H43.35v.82l1.27.2v10.18l-1.36.17v.8h5.36v-.8l-2.24-.18V104.7c.07,0,.28,0,.6,0h.32a5.8,5.8,0,0,1-.17-.72s0-.11,0-.16a5.29,5.29,0,0,1-.73-.07V98l.47,0A9,9,0,0,1,48,97.89a3.27,3.27,0,0,1,2.19.61,2.58,2.58,0,0,1,.71,2,3.47,3.47,0,0,1-.82,2.57,2.63,2.63,0,0,1-.94.59c.06.31.15.62.23.93a4.65,4.65,0,0,0,1.07-.36,3.89,3.89,0,0,0,1.68-1.47,4.18,4.18,0,0,0,.61-2.28A3.33,3.33,0,0,0,51.72,97.89Z"/><path d="M57,103.93h.53c0-.29.06-.58.08-.88H57V98h.12a3.5,3.5,0,0,0-.14-.46.88.88,0,0,1-.11-.42l-.75,0H53.94v.8l1.28.22v10.18l-1.36.17v.8H58.6v-.8L57,108.32Z"/><path d="M64,108.32c-.17,0-.34-.19-.52-.47s-.44-.73-.78-1.34c-.43-.81-.8-1.44-1.1-1.9a2.74,2.74,0,0,0-1-1,3.19,3.19,0,0,0,1.78-1.31,3.79,3.79,0,0,0,.65-2.13,2.86,2.86,0,0,0-1-2.45A5.38,5.38,0,0,0,58.89,97a6.17,6.17,0,0,1,.19.61c0,.1,0,.2.07.3a2.36,2.36,0,0,1,1.42.59,2.51,2.51,0,0,1,.61,1.83,3,3,0,0,1-.6,2,1.91,1.91,0,0,1-1,.59c0,.44-.08.88-.13,1.32a3,3,0,0,1,.44.63c.29.51.64,1.2,1,2.06s.65,1.37.87,1.74.41.57.59.57h2.26v-.8Z"/><path d="M69.4,108.53v-.14A2.93,2.93,0,0,1,68,107.17a7.28,7.28,0,0,1-.89-3.89,7.36,7.36,0,0,1,.91-4A2.92,2.92,0,0,1,69.7,98c0-.29,0-.58,0-.88a5.16,5.16,0,0,0-1.82.69,5.32,5.32,0,0,0-2,2.2,7.24,7.24,0,0,0-.71,3.31,8.2,8.2,0,0,0,.59,3.25,4.71,4.71,0,0,0,1.74,2.17,4.63,4.63,0,0,0,1.84.69Z"/><path d="M74.57,98.6a4.48,4.48,0,0,0-2.91-1.54l0,1a2.88,2.88,0,0,1,1.39,1.19,7.1,7.1,0,0,1,.88,3.85,7.52,7.52,0,0,1-.93,4.1,2.92,2.92,0,0,1-1.62,1.29v.26c0,.21,0,.42,0,.64a5.18,5.18,0,0,0,1.81-.69,5.55,5.55,0,0,0,2-2.25,7.45,7.45,0,0,0,.73-3.36A6.73,6.73,0,0,0,74.57,98.6Z"/><path d="M85.7,97.89A5.1,5.1,0,0,0,82.35,97c-.53,0-1.09,0-1.67.06-.39,0-.77.05-1.17.05H77.33v.82l1.28.2v10.18l-1.36.17v.8h5.36v-.8l-2.25-.18V104.7c.08,0,.28,0,.61,0h.39a1.75,1.75,0,0,0-.23-.24,1,1,0,0,1-.43-.66l-.34,0V98l.48,0A8.7,8.7,0,0,1,82,97.89a3.28,3.28,0,0,1,2.2.61,2.57,2.57,0,0,1,.7,2A3.47,3.47,0,0,1,84,103.1a2.54,2.54,0,0,1-1,.59c.06.09.12.18.17.27l.35.59a5.32,5.32,0,0,0,.79-.29,3.89,3.89,0,0,0,1.68-1.47,4.27,4.27,0,0,0,.61-2.28A3.3,3.3,0,0,0,85.7,97.89Z"/><path d="M89.5,98.14,88,97.94v-.82H92.8v.82l-1.53.2v10.18l1.53.18v.79H88v-.8l1.5-.17Z"/><path d="M100.3,102.54l-2.74,0V98h.11a1.1,1.1,0,0,1,.16-.85H94.47v.82l1.34.2v10.18l-1.36.17v.8h3.16a1.14,1.14,0,0,1,.09-.92h-.14v-4.88l2.74.05.23,1.41h.9v-3.77h-.9Z"/><path d="M102.8,97.12H99.4a1.1,1.1,0,0,1,.15.9l2.07,0,.48,1.59H103Z"/><path d="M103.05,106.15l-.87,2.06-2.88.1a1.1,1.1,0,0,1,.13,1h4.11l.48-2.85Z"/><path d="M109.24,108.49a4.86,4.86,0,0,1-1-.12V98h0l-.39-.88h-2.63v.82l1.28.2v10.18l-1.36.17v.8h2.25c.32,0,.81,0,1.45.06Z"/><path d="M114.75,98.52A6.05,6.05,0,0,0,110.22,97H110a9.76,9.76,0,0,0,.47.91,3.86,3.86,0,0,1,2.78,1.32,6,6,0,0,1,1.12,3.93,7.3,7.3,0,0,1-.52,2.92,3.94,3.94,0,0,1-1.47,1.81,3.73,3.73,0,0,1-.72.36l-.57,1.13a5.93,5.93,0,0,0,2.29-.78,5.68,5.68,0,0,0,2.13-2.34,7.43,7.43,0,0,0,.76-3.43A5.91,5.91,0,0,0,114.75,98.52Z"/><path d="M127.31,108.32l-4-11.3h-1.8l-4,11.3-1,.17v.8h3.88v-.8l-1.4-.17.77-2.42h1.36a1.11,1.11,0,0,1,.1-1H120.1l1.65-5.25.4-1.48.41,1.44,1.72,5.29h-1.4a1.14,1.14,0,0,1,.1,1h1.61l.77,2.42-1.36.17v.8h4.32v-.8Z"/><path d="M132.32,108.44l-.36-.07V98a3.25,3.25,0,0,0,.49,0h0a1.12,1.12,0,0,1,0-.88q-.92.06-1.41.06h-2.15v.82l1.28.2v10.18l-1.36.17v.8h2.25l.75,0A7.23,7.23,0,0,1,132.32,108.44Z"/><path d="M138.5,98.52A5.88,5.88,0,0,0,134.2,97a1.15,1.15,0,0,1,.07.91A3.84,3.84,0,0,1,137,99.22a6,6,0,0,1,1.12,3.93,7.3,7.3,0,0,1-.52,2.92,3.94,3.94,0,0,1-1.47,1.81,3.55,3.55,0,0,1-1.2.5.83.83,0,0,1-.23.38,3,3,0,0,0-.42.45,1.37,1.37,0,0,0-.13.2,6,6,0,0,0,3-.82,5.68,5.68,0,0,0,2.13-2.34,7.43,7.43,0,0,0,.76-3.43A5.91,5.91,0,0,0,138.5,98.52Z"/><path d="M147,97.44c.06.2.11.4.16.6l1.32,0,.48,1.59h.93l-.23-2.54h-2.77C146.89,97.23,146.93,97.33,147,97.44Z"/><path d="M145.18,108.8a3.61,3.61,0,0,0,.17-.46l-1,0v-4.88l2.74.05.23,1.41h.9v-3.77h-.9l-.23,1.36-2.74,0V98l.64,0c-.09-.29-.2-.58-.3-.87h-3.44v.82l1.35.2v10.18l-1.36.17v.8H145Z"/><path d="M149.88,106.15l-.87,2.06-1.57.05a4.86,4.86,0,0,1-.28,1v0h3.22l.47-2.85Z"/><path d="M157.16,97.93a2.8,2.8,0,0,1,.28.06,1.73,1.73,0,0,1,.68.31l.32,2h1l.1-2.75a3.49,3.49,0,0,1-.56-.14c-.49-.14-.93-.24-1.31-.32a8.86,8.86,0,0,0-1-.1C156.85,97.32,157,97.62,157.16,97.93Z"/><path d="M154.42,108.31a2.21,2.21,0,0,1-.76-.41l-.28-2.13h-1l-.13,3a3,3,0,0,1,.74.2c.4.12.77.22,1.13.31C154.18,108.93,154.3,108.62,154.42,108.31Z"/><path d="M159.81,104.38a4,4,0,0,0-1.15-1.07c-.45-.27-1-.58-1.74-.92s-1.32-.64-1.67-.85a3.21,3.21,0,0,1-.88-.75,1.74,1.74,0,0,1-.35-1.1,1.68,1.68,0,0,1,.58-1.37,1.77,1.77,0,0,1,.4-.24l-.39-.83a2.74,2.74,0,0,0-.4.15,3.2,3.2,0,0,0-1.39,1.12,2.83,2.83,0,0,0-.49,1.61,3,3,0,0,0,.5,1.72A4.21,4.21,0,0,0,154,103a12.43,12.43,0,0,0,1.6.84,16.52,16.52,0,0,1,1.6.77,3,3,0,0,1,.93.79,1.7,1.7,0,0,1,.35,1.09,1.92,1.92,0,0,1-.64,1.54,2.47,2.47,0,0,1-1.38.53c-.11.31-.23.62-.35.92a4.91,4.91,0,0,0,2.22-.51,3.57,3.57,0,0,0,1.47-1.31,3.24,3.24,0,0,0,.48-1.67A2.65,2.65,0,0,0,159.81,104.38Z"/><path d="M69,117.55a5.14,5.14,0,0,0-3.36-.89c-.52,0-1.08,0-1.67.07-.38,0-.77,0-1.16,0H60.58v.81l1.28.2V128l-1.36.16V129h5.35v-.81L63.61,128v-3.6l.6,0,.81,0c-.09-.19-.17-.39-.27-.59a1,1,0,0,1-.1-.3,7.52,7.52,0,0,1-1-.07v-5.82l.47,0c.4,0,.77-.06,1.12-.06a3.27,3.27,0,0,1,2.19.61,2.55,2.55,0,0,1,.71,2,3.46,3.46,0,0,1-.81,2.57,2.74,2.74,0,0,1-.63.44c.15.31.3.63.44,1l.55-.22a3.87,3.87,0,0,0,1.67-1.48,4.12,4.12,0,0,0,.61-2.27A3.32,3.32,0,0,0,69,117.55Z"/><path d="M74.21,123.59h.17a8.74,8.74,0,0,1,.14-.87h-.31v-3.24h0a1.17,1.17,0,0,1-.1-.78,4.37,4.37,0,0,0,.09-.5l0-.23v-.32h0c0-.3,0-.6,0-.9-.38,0-.69,0-.93,0H71.18v.8l1.27.21V128l-1.36.16V129h4.74v-.81L74.21,128Z"/><path d="M81.25,128c-.17,0-.34-.19-.52-.48s-.44-.73-.78-1.34c-.43-.81-.8-1.44-1.1-1.89a2.87,2.87,0,0,0-1-1A3.15,3.15,0,0,0,79.65,122a3.74,3.74,0,0,0,.65-2.13,2.87,2.87,0,0,0-1-2.45,5.37,5.37,0,0,0-3-.77c0,.31,0,.61,0,.91a2.44,2.44,0,0,1,1.56.6,2.52,2.52,0,0,1,.62,1.83,3,3,0,0,1-.61,2,2,2,0,0,1-1.26.66,1.12,1.12,0,0,1,0,.32c0,.22-.1.44-.14.66a2.62,2.62,0,0,1,.77.91c.28.51.63,1.19,1,2.06s.65,1.36.87,1.74.41.57.59.57h2.26v-.81Z"/><path d="M87.71,117.32l.16.36,1.93,0,.47,1.58h.94L91,116.78H87.49Z"/><path d="M85.74,127.87v-4.72l2.73,0,.23,1.41h.9v-3.77h-.9l-.23,1.36-2.73,0v-4.48c-.14-.33-.28-.66-.41-1H82.64v.81l1.34.2V128l-1.36.16V129H85C85.28,128.6,85.51,128.24,85.74,127.87Z"/><path d="M91.22,125.8l-.86,2.06-2.26.08c-.24.33-.46.67-.67,1h4.28l.48-2.85Z"/><path d="M95.5,125.63c-.33-.29-.64-.57-1-.84l-.11-.08L94,128l-1.39.16V129h4.28v-.81L95.29,128Z"/><path d="M102.12,123.1l0-.06-.12-.24c-.07-.14-.15-.28-.23-.42a.41.41,0,0,1,0-.09l-.58,1.86-.49,2.08-.55-2.08-2.3-7.37H93.43v.81l1.79.2-.56,4.73a6,6,0,0,1,1,.67l.23-2.57.3-3.17,1,3.09,2.66,7.85h1.06l1.45-4.55A6.44,6.44,0,0,0,102.12,123.1Z"/><path d="M107.23,128l-1.31-10.17,1.8-.2v-.81h-4.31l-1,3.16a5.9,5.9,0,0,1,.84,1.08l.39-1.2.68-2.36.35,3.16.73,7.36-1.49.16V129h4.72v-.81Z"/><path d="M111.16,117.79l-1.53-.2v-.81h4.82v.81l-1.52.2V128l1.52.18V129h-4.8v-.81l1.51-.16Z"/><path d="M123.41,116.78v.81l1.37.22v6.27a5.23,5.23,0,0,1-.74,3,2.32,2.32,0,0,1-.93.78q0,.48.06.93a4,4,0,0,0,1.65-1A5.34,5.34,0,0,0,126,124v-6.21l1.2-.2v-.81Z"/><path d="M121.12,128.12a2.55,2.55,0,0,1-1.6-.93,5.1,5.1,0,0,1-.8-3.21v-6.17l1.4-.22v-.81h-4.38v.81l1.17.2v6a6,6,0,0,0,1.13,4,4.32,4.32,0,0,0,3.14,1.27Z"/><path d="M130.46,125.29l0,0a6.7,6.7,0,0,1-1-.82l0,0L129,128l-1.39.16V129h4.27v-.81l-1.62-.16Z"/><path d="M141.72,124.52a14.71,14.71,0,0,1-1.62.85l.26,2.61-1.49.16V129h4.72v-.81l-1.43-.18Z"/><path d="M139.28,117.46l.34,3.16.27,2.64.05,0c.4-.22.79-.45,1.18-.68l.32-.2-.59-4.57,1.8-.2v-.81h-4.3l-2.3,7.37-.49,2.08-.54-2.08-2.31-7.37h-4.34v.81l1.79.2-.5,4.24a8.21,8.21,0,0,1,1,.85l.2-2.26.29-3.17,1,3.09,2.65,7.85h1.07l2.73-8.57Z"/></g></g></svg>