<svg xmlns="http://www.w3.org/2000/svg" viewBox="0 0 263.21 129"><defs><style>.cls-1{fill:#2d3b5c;}</style></defs><g id="Capa_2" data-name="Capa 2"><g id="Capa_1-2" data-name="Capa 1"><path class="cls-1" d="M68.15,83.1c-.68,0-1-.06-1.27-.06-7,0-14.08.06-21.11-.07a7.89,7.89,0,0,1-7.23-4.24c-1.08-2-.88-4.07-.76-6.13A6.64,6.64,0,0,1,42,66.45c4.2-1.72,8.64-1.1,13-1a2.61,2.61,0,0,1,2.47,2.7c-.2,1.49-1.24,2.24-3.14,2.24s-4.1-.08-6.14,0a18.66,18.66,0,0,0-4.41.66c-3,.93-4.09,3.53-3.47,7.66a4.37,4.37,0,0,0,.54.08c5.89,0,11.78.07,17.67-.08,3.17-.08,6-1.08,7.82-4.06s2-6.38,1.37-9.77c-1-5.44-4.21-7.94-8.69-8.15-6.2-.3-12.47-.76-18.65.45-5.38,1.06-9.62,3.83-11.69,9.11a21.51,21.51,0,0,0-.82,12.73A15.2,15.2,0,0,0,42,91.57c6.75.51,13.57.18,20.35.1a5.45,5.45,0,0,0,5.34-4.21,36.22,36.22,0,0,0,.46-4.36M219.43,38.37h-1.67c-6.39,0-12.77.08-19.16,0-4.94-.08-8.71-1.74-9.44-7.63-.48-3.83.88-7.93,5.24-9.3,4-1.24,8.1-.57,12.17-.62a1.17,1.17,0,0,1,.83.29c.56.69,1.44,1.43,1.45,2.17a3.55,3.55,0,0,1-1.37,2.2c-.4.36-1.21.32-1.85.35-3,.12-6,.06-8.93.35a5.1,5.1,0,0,0-4.94,4.56,28.51,28.51,0,0,0,0,3.47c6.28,0,12.41.14,18.53-.06,3.85-.12,7-1.82,8.51-5.65a14.59,14.59,0,0,0,.57-8.09c-.92-5.14-4-8-8.6-8.23a125.3,125.3,0,0,0-17.76.29c-5,.44-9.36,2.72-11.82,7.33a19.81,19.81,0,0,0-.5,18.19c2.75,6.06,8,8.7,14.3,9,5.57.29,11.17.11,16.76.1,5.93,0,8.1-2.31,7.84-8.23,0-.09-.05-.19-.13-.49M100.09,91.86h10.65V56.69H109c-6.09,0-12.18-.11-18.27.05a38.85,38.85,0,0,0-8.53,1.08c-5.56,1.4-9.33,5-10.44,10.66a46.93,46.93,0,0,0-.5,10.07,13.35,13.35,0,0,0,9,12.14,28.87,28.87,0,0,0,11.62,1.08c4.88-.34,7-4,5.86-8.7-.51,0-1.05,0-1.59,0-2.59,0-5.19.05-7.78-.07-3.56-.16-6.09-2.36-6.44-5.82a20,20,0,0,1,.29-5.78,6.4,6.4,0,0,1,6.16-5.5c3.78-.23,7.57-.15,11.36-.19.07,0,.14.13.3.28Zm32.8-71.13V12c-1.84,0-3.57,0-5.31,0-5.23.09-10.47,0-15.67.38a15.84,15.84,0,0,0-9.64,4.19c-4.1,3.75-5.29,8.55-5.22,13.88.12,8.56,5.85,15.4,14.34,16.23a101.86,101.86,0,0,0,16.57.23c4.81-.31,6.48-3.38,5.6-8.57h-1.62c-5.29,0-10.58.12-15.87,0-3.21-.09-6.32-1-7.82-4.2a9.5,9.5,0,0,1,1-10.25c1.88-2.47,4.7-3.06,7.58-3.11,4.79-.09,9.58,0,14.37,0ZM36.74,38.36c-3.74,0-7.42,0-11.11,0-2.73,0-5.47-.05-8.19-.29-3.07-.27-5.57-1.7-6.55-4.77-1.14-3.6-.84-7.15,1.9-10,1.83-1.91,4.37-2.48,7-2.53,3.89-.07,7.78,0,11.67,0h4.45V12c-5.94,0-11.77,0-17.6,0a19.74,19.74,0,0,0-3,.27C6.26,13.67,1.62,18.25.24,27.13-1.43,37.87,5.94,46.79,16.76,47c4.09.09,8.18.06,12.27.05,6,0,8.1-2.27,7.83-8.23a3,3,0,0,0-.12-.5M151,65.93V91.66h11V65.92h14V56.2h-39.7v9.73Zm57.88-9.77c0,.56-.07,1.05-.07,1.54,0,5.93-.21,11.87,0,17.8.19,4.84-2.81,7.44-7.57,7.5-6.39.1-12.77,0-19.16,0h-1.74v8.71h1.83c6.78,0,13.56.05,20.34,0a39.31,39.31,0,0,0,6.22-.57,12.85,12.85,0,0,0,10.81-12.86q0-10.32,0-20.65c0-.48,0-1-.08-1.48ZM68.6,47H79.26V12.16H68.54V24.3c-3.3,0-6.5-.16-9.67,0-4.76.31-8,2.65-6.78,8.89H68.6Zm96.67-22.66c-3.38,0-6.52-.16-9.65,0-5,.3-7.91,2.9-6.79,8.92h16.49V47H176V12.13H165.27ZM115,56.76c0,7.2-.15,14.23,0,21.25.22,8.72,5.69,12.71,12.83,13.6a69.86,69.86,0,0,0,11,.1c4.58-.17,6.79-3.9,5.71-8.65-3.8,0-7.64.08-11.47,0-4.15-.12-7.48-2.22-7.33-7.44.15-5.77,0-11.56,0-17.34,0-.48,0-1-.08-1.5ZM251.94,47h10.73c0-7.63.21-15.16-.09-22.68-.17-4.4-2.54-7.81-6.56-10a22.49,22.49,0,0,0-8.71-2.26c-3.68-.37-7,.44-9.59,3.31a6.88,6.88,0,0,0-2.05,5.44,1.82,1.82,0,0,0,.41.16c2.89,0,5.79,0,8.68.05,4.75.11,7.17,2.62,7.18,7.37,0,5.64,0,11.28,0,16.92Zm-28.86,0h10.79V12.1H223.08ZM.12,91.63H10.71V56.74H.12Zm146.77-79.5H136.35V47h10.54Zm-53,0H83.39V47.05H93.92ZM39.66,47H50.2V12.08H39.66ZM207,70.37c-1.19,0-2.33,0-3.46,0a65.1,65.1,0,0,1-7.27-.5c-3.77-.6-5.45-2.78-5.45-6.58V56.15h-11.2c.23,3.84.35,7.61.68,11.35.41,4.63,3.07,7.81,7.12,9.75A20.75,20.75,0,0,0,199.36,79c4-.54,7.9-4.08,7.64-8.62M218.92,0c-6,0-11.8-.11-17.62,0-5.07.13-7.39,3.48-6.39,8.56h24ZM25.73,56.81c-7.72-.75-14,3.54-12.93,8.7H25.73Z"/><path class="cls-1" d="M68.15,83.1a36.22,36.22,0,0,1-.46,4.36,5.45,5.45,0,0,1-5.34,4.21c-6.78.08-13.6.41-20.35-.1A15.18,15.18,0,0,1,27.87,79.1a21.43,21.43,0,0,1,.81-12.73c2.07-5.28,6.31-8.05,11.69-9.11,6.18-1.21,12.45-.75,18.65-.45,4.48.21,7.69,2.71,8.69,8.15.63,3.39.53,6.68-1.37,9.77s-4.65,4-7.82,4.06c-5.89.15-11.78.07-17.67.08a4.37,4.37,0,0,1-.54-.08c-.62-4.13.5-6.73,3.47-7.66a18.66,18.66,0,0,1,4.41-.66c2-.11,4.09,0,6.14,0s2.94-.75,3.14-2.24A2.61,2.61,0,0,0,55,65.5c-4.35-.15-8.79-.77-13,1a6.64,6.64,0,0,0-4.23,6.15c-.12,2.06-.32,4.16.76,6.13A7.89,7.89,0,0,0,45.77,83c7,.13,14.07.06,21.11.07.3,0,.59,0,1.27.06"/><path class="cls-1" d="M219.43,38.37c.08.3.12.4.13.49.26,5.92-1.91,8.21-7.84,8.23-5.59,0-11.19.19-16.76-.1-6.34-.33-11.55-3-14.3-9a19.81,19.81,0,0,1,.5-18.19c2.46-4.61,6.86-6.89,11.82-7.33a125.3,125.3,0,0,1,17.76-.29c4.59.25,7.68,3.09,8.6,8.23a14.59,14.59,0,0,1-.57,8.09c-1.52,3.83-4.66,5.53-8.51,5.65-6.12.2-12.25.06-18.53.06a28.51,28.51,0,0,1,0-3.47,5.1,5.1,0,0,1,4.94-4.56c3-.29,6-.23,8.93-.35.64,0,1.45,0,1.85-.35a3.55,3.55,0,0,0,1.37-2.2c0-.74-.89-1.48-1.45-2.17a1.17,1.17,0,0,0-.83-.29c-4.07.05-8.2-.62-12.17.62-4.36,1.37-5.72,5.47-5.24,9.3.73,5.89,4.5,7.55,9.44,7.63,6.39.1,12.77,0,19.16,0Z"/><path class="cls-1" d="M100.09,91.86V66c-.16-.15-.23-.28-.3-.28-3.79,0-7.58,0-11.36.19a6.4,6.4,0,0,0-6.16,5.5A20,20,0,0,0,82,77.18c.35,3.46,2.88,5.66,6.44,5.82,2.59.12,5.19.06,7.78.07h1.59c1.1,4.69-1,8.36-5.86,8.7a28.8,28.8,0,0,1-11.61-1.08,13.34,13.34,0,0,1-9-12.14,47.06,47.06,0,0,1,.5-10.08c1.11-5.66,4.88-9.25,10.44-10.65a38.85,38.85,0,0,1,8.53-1.08c6.09-.16,12.18-.05,18.27-.05h1.72V91.86Z"/><path class="cls-1" d="M132.89,20.73h-1.67c-4.79,0-9.58-.06-14.37,0-2.88,0-5.7.64-7.58,3.11a9.5,9.5,0,0,0-1,10.25c1.5,3.25,4.61,4.11,7.82,4.2,5.29.16,10.58,0,15.87,0h1.62c.88,5.19-.79,8.26-5.6,8.57a101.86,101.86,0,0,1-16.57-.23C102.9,45.87,97.17,39,97.05,30.47c-.07-5.33,1.12-10.13,5.22-13.88a15.84,15.84,0,0,1,9.64-4.19c5.2-.38,10.44-.29,15.67-.38,1.74,0,3.47,0,5.31,0Z"/><path class="cls-1" d="M36.74,38.36a3,3,0,0,1,.12.5c.27,6-1.85,8.21-7.83,8.23-4.09,0-8.18,0-12.27-.05C5.94,46.79-1.43,37.87.24,27.13c1.38-8.88,6-13.46,15.07-14.82a19.74,19.74,0,0,1,3-.27c5.83,0,11.66,0,17.6,0v8.7H31.42c-3.89,0-7.78-.05-11.67,0-2.59.05-5.13.61-7,2.53-2.74,2.86-3,6.41-1.9,10,1,3.07,3.48,4.5,6.55,4.77,2.72.24,5.46.26,8.19.29,3.69,0,7.37,0,11.11,0"/><polygon class="cls-1" points="151.01 65.93 136.33 65.93 136.33 56.2 176.03 56.2 176.03 65.92 162.05 65.92 162.05 91.66 151.01 91.66 151.01 65.93"/><path class="cls-1" d="M208.89,56.16h10.6c0,.52.08,1,.08,1.48q0,10.33,0,20.65a12.85,12.85,0,0,1-10.81,12.86,39.31,39.31,0,0,1-6.22.57c-6.78.07-13.56,0-20.34,0h-1.83V83h1.74c6.39,0,12.77.07,19.16,0,4.76-.06,7.76-2.66,7.57-7.5-.23-5.93,0-11.87,0-17.8,0-.49,0-1,.07-1.54"/><path class="cls-1" d="M68.6,47V33.23H52.09c-1.2-6.24,2-8.58,6.78-8.89,3.17-.2,6.37,0,9.67,0V12.16H79.26V47Z"/><path class="cls-1" d="M165.27,24.31V12.13H176V47H165.32V33.26H148.83c-1.12-6,1.8-8.62,6.79-8.92,3.12-.19,6.27,0,9.65,0"/><path class="cls-1" d="M115,56.76h10.71c0,.53.08,1,.08,1.49,0,5.79.16,11.58,0,17.35-.15,5.22,3.18,7.32,7.33,7.44,3.83.1,7.67,0,11.47,0,1.08,4.75-1.13,8.48-5.71,8.65a69.86,69.86,0,0,1-11-.1c-7.14-.89-12.61-4.88-12.83-13.6-.19-7,0-14.05,0-21.25"/><path class="cls-1" d="M251.94,47V45.31c0-5.64,0-11.28,0-16.92,0-4.75-2.43-7.26-7.18-7.37-2.89-.06-5.79,0-8.68-.05a1.82,1.82,0,0,1-.41-.16,6.88,6.88,0,0,1,2.05-5.44c2.57-2.87,5.91-3.68,9.6-3.31a22.49,22.49,0,0,1,8.7,2.26c4,2.17,6.39,5.58,6.56,10,.3,7.52.09,15.05.09,22.68Z"/><rect class="cls-1" x="223.08" y="12.1" width="10.79" height="34.87"/><rect class="cls-1" x="0.12" y="56.74" width="10.59" height="34.9"/><rect class="cls-1" x="136.35" y="12.13" width="10.54" height="34.91"/><rect class="cls-1" x="83.39" y="12.13" width="10.53" height="34.92"/><rect class="cls-1" x="39.66" y="12.08" width="10.54" height="34.92"/><path class="cls-1" d="M207,70.37c.26,4.54-3.67,8.08-7.64,8.62a20.75,20.75,0,0,1-11.94-1.74c-4-1.94-6.71-5.12-7.12-9.75-.33-3.74-.45-7.51-.68-11.35h11.2v7.13c0,3.8,1.68,6,5.45,6.58a65.1,65.1,0,0,0,7.27.5c1.13.06,2.27,0,3.46,0"/><path class="cls-1" d="M218.92,0v8.6h-24c-1-5.08,1.32-8.43,6.39-8.56,5.82-.15,11.65,0,17.62,0"/><path class="cls-1" d="M25.73,56.81v8.7H12.8c-1.06-5.16,5.21-9.45,12.93-8.7"/><polygon class="cls-1" points="10.78 117.96 6.98 126.46 5.91 126.46 2.13 117.96 2.13 128.78 0.43 128.78 0.43 114.93 2.21 114.93 6.44 124.48 10.7 114.93 12.48 114.93 12.48 128.78 10.78 128.78 10.78 117.96"/><path class="cls-1" d="M34.49,125.39H28.64l-1.11,3.39H25.71l4.95-13.85h1.86l4.94,13.85H35.62ZM29.11,124H34l-2.47-7.42Z"/><path class="cls-1" d="M59.34,125.2c0,2.51-2,3.8-4.37,3.8a10.43,10.43,0,0,1-5.24-1.69l.79-1.26A9.72,9.72,0,0,0,55,127.53c1.36,0,2.63-.71,2.63-2.21,0-1.71-1.74-2.28-3.92-3.07-1.7-.61-3.64-1.44-3.64-3.86s1.78-3.68,4.16-3.68A10.59,10.59,0,0,1,58.87,116l-.8,1.26a9,9,0,0,0-3.83-1.1c-1.27,0-2.46.63-2.46,2.11,0,1.64,1.65,2,3.56,2.69s4,1.59,4,4.22"/><polygon class="cls-1" points="77.34 116.41 77.34 128.78 75.64 128.78 75.64 116.41 71.64 116.41 71.64 114.93 81.36 114.93 81.36 116.41 77.34 116.41"/><polygon class="cls-1" points="94.57 128.78 94.57 114.93 102.78 114.93 102.78 116.41 96.27 116.41 96.27 121.12 101.65 121.12 101.65 122.59 96.27 122.59 96.27 127.29 102.9 127.29 102.9 128.78 94.57 128.78"/><path class="cls-1" d="M121.43,122.9h-3v5.88h-1.7V114.93h5.06c2.83,0,4.83,1,4.83,4,0,2.45-1.41,3.58-3.48,3.89l3.5,6h-1.9Zm.36-6.57h-3.36v5.17h3.28c1.84,0,3.17-.67,3.17-2.57s-1.33-2.6-3.09-2.6"/><path class="cls-1" d="M145.88,128.78h-5.42V114.93H145c2.88,0,4.47,1.21,4.47,3.38a3,3,0,0,1-2.2,3.13,3.44,3.44,0,0,1,2.91,3.64c0,2.29-1.45,3.7-4.3,3.7M145,116.31h-2.83v4.54h2.73c1.64,0,2.88-.72,2.88-2.3,0-1.31-.85-2.24-2.78-2.24m0,5.86h-2.84v5.22h3.5c1.92,0,2.83-1.08,2.83-2.57,0-1.76-1.23-2.65-3.49-2.65"/><path class="cls-1" d="M168.71,122.9h-3v5.88H164V114.93h5.06c2.83,0,4.83,1,4.83,4,0,2.45-1.41,3.58-3.49,3.89l3.51,6H172Zm.36-6.57h-3.36v5.17H169c1.84,0,3.17-.67,3.17-2.57s-1.33-2.6-3.09-2.6"/><path class="cls-1" d="M198.49,121.85c0,3.92-1.57,7.15-5.7,7.15s-5.68-3.23-5.68-7.15,1.54-7.14,5.68-7.14,5.7,3.21,5.7,7.14m-1.77,0c0-3.14-1-5.65-3.93-5.65s-3.92,2.51-3.92,5.65,1,5.66,3.92,5.66,3.93-2.51,3.93-5.66"/><polygon class="cls-1" points="210.93 114.93 212.63 114.93 212.63 122.55 218.5 114.93 220.58 114.93 215.32 121.54 221.1 128.78 219.04 128.78 214.33 122.78 212.63 124.92 212.63 128.78 210.93 128.78 210.93 114.93"/><polygon class="cls-1" points="232.65 128.78 232.65 114.93 240.86 114.93 240.86 116.41 234.35 116.41 234.35 121.12 239.73 121.12 239.73 122.59 234.35 122.59 234.35 127.29 240.98 127.29 240.98 128.78 232.65 128.78"/><path class="cls-1" d="M258,122.9h-3v5.88h-1.7V114.93h5.06c2.83,0,4.83,1,4.83,4,0,2.45-1.4,3.58-3.48,3.89l3.5,6h-1.9Zm.35-6.57H255v5.17h3.29c1.84,0,3.16-.67,3.16-2.57s-1.32-2.6-3.09-2.6"/></g></g></svg>